<svg xmlns="http://www.w3.org/2000/svg" viewBox="0 0 75.6 99.93"><defs><style>.cls-1{fill:none;}.cls-2{fill:#bf9456;}</style></defs><title>cutters</title><g id="Layer_2" data-name="Layer 2"><g id="Layer_1-2" data-name="Layer 1"><path class="cls-1" d="M64.59,83.69a1.84,1.84,0,0,1,0-.29,4.76,4.76,0,0,0-4.68-4,4.36,4.36,0,0,0-.51,0l-.29,0a4.75,4.75,0,0,0-3.92,5.19,2,2,0,0,1,0,.29,4.77,4.77,0,0,0,5.19,3.93,1.84,1.84,0,0,1,.29,0,4.68,4.68,0,0,0,3-1.81h0A4.72,4.72,0,0,0,64.59,83.69Z"/><path class="cls-1" d="M16.37,79.49a4.75,4.75,0,0,0-5.32,4c0,.07,0,.18,0,.28a4.75,4.75,0,0,0,4,5.16,1.7,1.7,0,0,1,.28,0,4.76,4.76,0,0,0,5.18-4.09h0a4.75,4.75,0,0,0-4.07-5.34Z"/><polygon class="cls-1" points="69.13 82.95 69.13 82.95 69.13 82.95 69.13 82.95"/><path class="cls-2" d="M68.75,83a9,9,0,0,0-8.87-7.78,9.8,9.8,0,0,0-1.2.08A9,9,0,1,0,68.76,83l.37-.06h0Zm-4.51,4.53a5.47,5.47,0,0,1-3.5,2.09l-.25,0-.62,0a5.48,5.48,0,0,1-5.43-4.62c0-.11,0-.18,0-.25a5.47,5.47,0,0,1,4.58-6l.25,0a5.57,5.57,0,0,1,4,1.09,5.47,5.47,0,0,1,2.09,3.5,1.59,1.59,0,0,0,0,.26A5.51,5.51,0,0,1,64.24,87.53Z"/><path class="cls-2" d="M72.38,93.74A15.75,15.75,0,0,0,56,68.93a.48.48,0,0,1-.48-.14l-10-15.48a.36.36,0,0,1,0-.35L67,2.47a1.74,1.74,0,0,0-3-1.67l-25.82,40a.4.4,0,0,1-.64,0L11.66.8a1.74,1.74,0,0,0-3,1.66L30.07,53a.36.36,0,0,1,0,.35l-10,15.48a.38.38,0,0,1-.41.16,15,15,0,0,0-1.8-.35A15.72,15.72,0,0,0,.17,81.92a2.09,2.09,0,0,0-.05.32A15.72,15.72,0,0,0,13.46,99.76a2.09,2.09,0,0,0,.32,0A15.73,15.73,0,0,0,31.3,86.47a2.19,2.19,0,0,0,.05-.31,15.89,15.89,0,0,0-.71-7,15.64,15.64,0,0,0-2.79-5,.38.38,0,0,1,0-.42A37.85,37.85,0,0,1,31,68.86a27.11,27.11,0,0,1,4.45-4.55,14.77,14.77,0,0,1,1.37-.9c.3-.18.59-.35.85-.53a.39.39,0,0,1,.21-.06.46.46,0,0,1,.2,0c2.48,1.52,6.17,4.63,9.66,10.87a.38.38,0,0,1,0,.42,15.73,15.73,0,0,0-3.5,12,2.79,2.79,0,0,0,0,.32A15.74,15.74,0,0,0,61.8,99.81l.31,0A15.67,15.67,0,0,0,72.38,93.74ZM40,44.29l13.53-21a.39.39,0,0,1,.5-.12.36.36,0,0,1,.16.47L43.45,49a.37.37,0,0,1-.31.22h0a.37.37,0,0,1-.31-.17L40,44.7A.38.38,0,0,1,40,44.29ZM33.55,61.43l-.22.16h0a31.11,31.11,0,0,0-5,5.14A43.39,43.39,0,0,0,24,73.43a1.74,1.74,0,0,0,.4,2.12,12.26,12.26,0,0,1-8.67,20.91,13.22,13.22,0,0,1-1.66-.11A12.26,12.26,0,1,1,17.37,72a11.67,11.67,0,0,1,1.36.27,11,11,0,0,1,1.3.4A1.76,1.76,0,0,0,22.1,72l0,0L31.41,57.6a.37.37,0,0,1,.35-.17.36.36,0,0,1,.31.23l1.11,2.62,0,.1,0,.09,0,.07s0,.08.07.09l.06.08.09.1a.48.48,0,0,1,.13.32A.41.41,0,0,1,33.55,61.43Zm28,34.92a13.38,13.38,0,0,1-1.67.11A12.25,12.25,0,0,1,47.72,85.84a12.08,12.08,0,0,1,.54-5.6,12.27,12.27,0,0,1,2.89-4.67,1.75,1.75,0,0,0,.42-2.14c-5.74-11-12.65-14.33-15.36-15.24A.35.35,0,0,1,36,58L21.41,23.67a.36.36,0,0,1,.16-.47.39.39,0,0,1,.5.12L53.47,72l0,0a1.76,1.76,0,0,0,2.07.69,9.69,9.69,0,0,1,1.31-.4A11.51,11.51,0,0,1,58.23,72a12.27,12.27,0,0,1,3.28,24.31Z"/><path class="cls-2" d="M38.46,53.56A1.58,1.58,0,1,0,40,55.14,1.57,1.57,0,0,0,38.46,53.56Z"/><path class="cls-2" d="M22.87,78.76a8.91,8.91,0,0,0-5.94-3.45,8.33,8.33,0,0,0-1.22-.08,9,9,0,1,0,7.16,3.53Zm-1.69,6.17a5.49,5.49,0,0,1-5.44,4.76,5.83,5.83,0,0,1-.59,0l-.26,0a5.49,5.49,0,0,1-4.62-6,1.38,1.38,0,0,0,0-.26,5.52,5.52,0,0,1,2.1-3.53,5.5,5.5,0,0,1,8.78,5.11Z"/></g></g></svg>